# xmcd
#
# Track frame offsets:
# 150
# 39445
# 63653
# 88952
# 102646
# 125783
# 146046
# 186284
# 212076
# 259923
# 295730
# 324356
#
# Disc length: 4695 seconds
#
# Revision: 1
# Processed by: cddbd v1.5.2PL0 Copyright (c) Steve Scherf et al.
# Submitted via: CedeCatalogueitor 2.5 http://usuarios.lycos.es/kakasboy
#
DISCID=c412550c
DTITLE=Randall Bramblett Band - Live at the 40 Watt
DYEAR=2010
DGENRE=
TTITLE0=Living In A Dream
TTITLE1=Beautiful Blur
TTITLE2=Alright
TTITLE3=Rich Someday
TTITLE4=Where Are You
TTITLE5=Rainville
TTITLE6=See Thru Me
TTITLE7=Playin Card
TTITLE8=God Was In The Water
TTITLE9=King Grand
TTITLE10=That's Your Secret
TTITLE11=Queen Of England
EXTD=
EXTT0=
EXTT1=
EXTT2=
EXTT3=
EXTT4=
EXTT5=
EXTT6=
EXTT7=
EXTT8=
EXTT9=
EXTT10=
EXTT11=
PLAYORDER=
